<svg width="23" height="17" viewBox="0 0 23 17" fill="none" xmlns="http://www.w3.org/2000/svg">
<path d="M22.1436 0.899724C21.598 0.318773 20.8599 0 20.0576 0H2.94246C2.1512 0 1.41308 0.31772 0.877526 0.877086C0.310908 1.43645 0 2.19324 0 3.01584V13.9842C0 15.6509 1.31578 17 2.94143 17H20.0576C21.6832 17 22.999 15.6509 22.999 13.9842L23 3.01689C23 2.20561 22.6901 1.44882 22.1446 0.899724H22.1436ZM19.5982 4.65077L15.0943 9.26863C14.1315 10.2558 12.8589 10.7935 11.5 10.7935C10.1411 10.7935 8.86843 10.2558 7.90567 9.26863L3.36964 4.61787C3.05976 4.30015 3.05976 3.77368 3.36964 3.45491C3.67953 3.13719 4.193 3.13719 4.50391 3.45491L9.03993 8.10568C10.3557 9.45474 12.6453 9.45474 13.9611 8.10568L18.465 3.48781C18.7749 3.17009 19.2884 3.17009 19.5993 3.48781C19.9091 3.80553 19.9091 4.332 19.5993 4.65077H19.5982Z" fill="#EF1384"/>
</svg>
