<svg width="26" height="25" viewBox="0 0 26 25" fill="none" xmlns="http://www.w3.org/2000/svg">
<path d="M22.684 23.6802L22.9648 23.3286L22.684 23.6802C22.8222 23.7907 22.9812 23.8723 23.1515 23.9203C23.3218 23.9683 23.5 23.9817 23.6755 23.9597C23.8511 23.9378 24.0205 23.8809 24.1737 23.7924L23.9486 23.4027L24.1737 23.7923C24.3269 23.7038 24.4608 23.5856 24.5676 23.4445C24.6744 23.3034 24.7518 23.1423 24.7953 22.9708C24.8388 22.7993 24.8475 22.6208 24.8209 22.4459C24.7946 22.273 24.7344 22.1071 24.6438 21.9577C23.0817 19.2594 20.7499 17.2497 18.0123 16.1441C19.2161 15.2363 20.1556 14.0148 20.7228 12.6057C21.4036 10.9144 21.5104 9.0465 21.0267 7.28872C20.5431 5.53094 19.4959 3.9805 18.0458 2.87551C16.5958 1.77052 14.8231 1.17207 13 1.17207C11.1769 1.17207 9.4042 1.77052 7.95414 2.87551C6.50409 3.9805 5.45684 5.53094 4.97323 7.28872C4.48963 9.0465 4.5964 10.9144 5.27715 12.6057C5.84432 14.0147 6.78378 15.2362 7.98743 16.1439C5.24991 17.2487 2.9182 19.2585 1.35618 21.9577C1.26553 22.1072 1.20533 22.2731 1.17906 22.4459C1.15247 22.6208 1.16119 22.7993 1.20469 22.9708C1.2482 23.1423 1.32562 23.3034 1.43237 23.4445C1.53913 23.5856 1.67307 23.7038 1.82628 23.7923C1.9795 23.8809 2.14889 23.9378 2.32446 23.9597C2.50002 23.9817 2.67821 23.9683 2.84852 23.9203C3.01882 23.8723 3.17778 23.7907 3.31602 23.6802C3.45249 23.5712 3.56605 23.4363 3.65017 23.2832C5.63268 19.8606 9.12681 17.825 13 17.825C16.8732 17.825 20.3673 19.8606 22.3498 23.2832C22.4339 23.4363 22.5475 23.5712 22.684 23.6802ZM7.32499 9.49956C7.32509 8.37732 7.65791 7.2803 8.2814 6.34719C8.90498 5.41394 9.79129 4.68656 10.8283 4.25703C11.8652 3.8275 13.0063 3.71512 14.1071 3.93409C15.208 4.15306 16.2192 4.69355 17.0128 5.48721C17.8065 6.28088 18.347 7.29207 18.5659 8.39291C18.7849 9.49375 18.6725 10.6348 18.243 11.6718C17.8135 12.7087 17.0861 13.5951 16.1529 14.2186C15.2197 14.8421 14.1227 15.175 13.0005 15.175C11.4957 15.1734 10.0531 14.575 8.98908 13.511C7.92507 12.4469 7.3266 11.0043 7.32499 9.49956Z" fill="#F8F8F8" stroke="#F8F8F8" stroke-width="0.9"/>
</svg>
